<svg width="17" height="17" viewBox="0 0 17 17" fill="none" xmlns="http://www.w3.org/2000/svg">
<path d="M4.5 10.5C5.6028 10.5 6.5 11.397 6.5 12.5C6.5 13.603 5.6028 14.5 4.5 14.5C3.3972 14.5 2.5 13.603 2.5 12.5C2.5 11.397 3.3972 10.5 4.5 10.5ZM4.5 9.5C2.8432 9.5 1.5 10.8433 1.5 12.5C1.5 14.1567 2.8432 15.5 4.5 15.5C6.1569 15.5 7.5 14.1567 7.5 12.5C7.5 10.8433 6.1568 9.5 4.5 9.5ZM12.5 2.5C13.6028 2.5 14.5 3.397 14.5 4.5C14.5 5.603 13.6028 6.5 12.5 6.5C11.3972 6.5 10.5 5.603 10.5 4.5C10.5 3.397 11.3973 2.5 12.5 2.5ZM12.5 1.5C10.8432 1.5 9.5 2.8433 9.5 4.5C9.5 6.1567 10.8432 7.5 12.5 7.5C14.1569 7.5 15.5 6.1567 15.5 4.5C15.5 2.8433 14.1569 1.5 12.5 1.5ZM2.00018 8C2.27658 8 2.50018 7.7754 2.50018 7.5V5.5C2.50018 3.8457 3.84588 2.5 5.50018 2.5H7.5C7.7764 2.5 8 2.2754 8 2C8 1.7246 7.7764 1.5 7.5 1.5H5.50018C3.29408 1.5 1.50018 3.2949 1.50018 5.5V7.5C1.50018 7.7754 1.72378 8 2.00018 8ZM9.5 15.5H11.5002C13.7063 15.5 15.5002 13.7051 15.5002 11.5L15.5 9.5C15.5 9.2246 15.2764 9 15 9C14.7236 9 14.5 9.2246 14.5 9.5L14.5002 11.5C14.5002 13.1543 13.1545 14.5 11.5002 14.5H9.5C9.2236 14.5 9 14.7246 9 15C9 15.2754 9.2236 15.5 9.5 15.5Z" fill="#686F79"/>
</svg>
