<svg width="20" height="20" viewBox="0 0 20 20" fill="none" xmlns="http://www.w3.org/2000/svg">
<path d="M10.008 3C10.0984 3 10.1861 3.01861 10.2712 3.05583C10.3615 3.09304 10.4546 3.14887 10.5503 3.22331L15.9256 7.59375C16.0692 7.71604 16.141 7.89149 16.141 8.12012C16.141 8.25836 16.1091 8.3833 16.0452 8.49495C15.9814 8.60129 15.8937 8.68636 15.7821 8.75016C15.6757 8.81397 15.5508 8.84587 15.4072 8.84587C15.3222 8.84587 15.2344 8.82992 15.144 8.79801C15.059 8.76611 14.9712 8.71295 14.8809 8.63851L10.8225 5.33071V16.1833C10.8225 16.6344 10.4569 17 10.0058 17C9.5548 17 9.18917 16.6344 9.18917 16.1833V5.33421L5.13509 8.63851C5.03939 8.71295 4.949 8.76611 4.86393 8.79801C4.77886 8.82992 4.69113 8.84587 4.60075 8.84587C4.46251 8.84587 4.33757 8.81397 4.22591 8.75016C4.11957 8.68636 4.03451 8.60129 3.9707 8.49495C3.9069 8.3833 3.875 8.25836 3.875 8.12012C3.875 7.89149 3.94678 7.71604 4.09033 7.59375L9.46566 3.23128C9.56136 3.15153 9.65175 3.09304 9.73682 3.05583C9.8272 3.01861 9.91759 3 10.008 3Z" fill="white"/>
</svg>
