<svg width="17" height="17" viewBox="0 0 17 17" fill="none" xmlns="http://www.w3.org/2000/svg">
<path fill-rule="evenodd" clip-rule="evenodd" d="M9.62023 1.59829C9.62339 1.56595 9.625 1.53316 9.625 1.5C9.625 0.947715 9.17729 0.5 8.625 0.5C8.07272 0.5 7.625 0.947715 7.625 1.5C7.625 1.53319 7.62662 1.566 7.62978 1.59836C5.27685 2.06974 3.49779 4.17925 3.49779 6.70376C3.49779 8.26507 2.88925 9.76723 1.79998 10.8727L1.5304 11.1463C1.14889 11.5009 0.943359 12.004 0.943359 12.5368C0.943359 13.6181 1.81231 14.5 2.8777 14.5L6.625 14.5C6.625 15.6046 7.52043 16.5 8.625 16.5C9.72957 16.5 10.625 15.6046 10.625 14.5L14.3727 14.5C15.438 14.5 16.307 13.6181 16.307 12.5368C16.307 12.004 16.1015 11.5008 15.72 11.1463L15.4504 10.8727C14.3611 9.76723 13.7526 8.26507 13.7526 6.70376C13.7526 4.17912 11.9733 2.06953 9.62023 1.59829ZM2.24271 11.8482L2.51229 11.5746C3.78868 10.2792 4.49779 8.52375 4.49779 6.70376C4.49779 4.37198 6.3634 2.5 8.62518 2.5C10.887 2.5 12.7526 4.37198 12.7526 6.70376C12.7526 8.52375 13.4617 10.2792 14.7381 11.5746L15.0076 11.8482C15.0179 11.8586 15.0285 11.8689 15.0392 11.8788C15.2018 12.0299 15.307 12.2603 15.307 12.5368C15.307 13.0798 14.8719 13.5 14.3727 13.5H2.8777C2.37849 13.5 1.94336 13.0798 1.94336 12.5368C1.94336 12.2603 2.04855 12.0299 2.21113 11.8789C2.22188 11.8689 2.23241 11.8586 2.24271 11.8482ZM8.625 15.5C8.07272 15.5 7.625 15.0523 7.625 14.5H9.625C9.625 15.0523 9.17728 15.5 8.625 15.5Z" fill="#686F79"/>
</svg>
