<svg width="17" height="17" viewBox="0 0 17 17" fill="none" xmlns="http://www.w3.org/2000/svg">
<path fill-rule="evenodd" clip-rule="evenodd" d="M6 2C6 1.72386 5.77614 1.5 5.5 1.5C5.22386 1.5 5 1.72386 5 2V2.38377C4.13476 2.40429 3.5877 2.47286 3.13803 2.70198C2.57354 2.9896 2.1146 3.44854 1.82698 4.01303C1.5 4.65476 1.5 5.49484 1.5 7.175V10.7C1.5 12.3802 1.5 13.2202 1.82698 13.862C2.1146 14.4265 2.57354 14.8854 3.13803 15.173C3.77976 15.5 4.61984 15.5 6.3 15.5H10.7C12.3802 15.5 13.2202 15.5 13.862 15.173C14.4265 14.8854 14.8854 14.4265 15.173 13.862C15.5 13.2202 15.5 12.3802 15.5 10.7V7.175C15.5 5.49484 15.5 4.65476 15.173 4.01303C14.8854 3.44854 14.4265 2.9896 13.862 2.70198C13.4123 2.47286 12.8652 2.40429 12 2.38377V2C12 1.72386 11.7761 1.5 11.5 1.5C11.2239 1.5 11 1.72386 11 2V2.37508H6V2ZM11 4V3.3751H6V4C6 4.27614 5.77614 4.5 5.5 4.5C5.22386 4.5 5 4.27614 5 4V3.38402C4.77849 3.38951 4.5849 3.39835 4.41104 3.41255C3.97262 3.44837 3.74842 3.5133 3.59202 3.59299C3.21569 3.78473 2.90973 4.09069 2.71799 4.46702C2.6383 4.62342 2.57337 4.84762 2.53755 5.28604C2.53199 5.35417 2.52724 5.42532 2.5232 5.5H14.4768C14.4728 5.42532 14.468 5.35417 14.4624 5.28604C14.4266 4.84762 14.3617 4.62342 14.282 4.46702C14.0903 4.09069 13.7843 3.78473 13.408 3.59299C13.2516 3.5133 13.0274 3.44837 12.589 3.41255C12.4151 3.39835 12.2215 3.38951 12 3.38402V4C12 4.27614 11.7761 4.5 11.5 4.5C11.2239 4.5 11 4.27614 11 4ZM14.499 6.5H2.50103C2.50006 6.70453 2.5 6.9284 2.5 7.175V10.7C2.5 11.5566 2.50078 12.1389 2.53755 12.589C2.57337 13.0274 2.6383 13.2516 2.71799 13.408C2.90973 13.7843 3.21569 14.0903 3.59202 14.282C3.74842 14.3617 3.97262 14.4266 4.41104 14.4624C4.86113 14.4992 5.44342 14.5 6.3 14.5H10.7C11.5566 14.5 12.1389 14.4992 12.589 14.4624C13.0274 14.4266 13.2516 14.3617 13.408 14.282C13.7843 14.0903 14.0903 13.7843 14.282 13.408C14.3617 13.2516 14.4266 13.0274 14.4624 12.589C14.4992 12.1389 14.5 11.5566 14.5 10.7V7.175C14.5 6.9284 14.4999 6.70453 14.499 6.5Z" fill="#686F79"/>
</svg>
