<svg width="14" height="14" viewBox="0 0 14 14" fill="none" xmlns="http://www.w3.org/2000/svg">
<path d="M7 0.875H3.5C2.873 0.875 2.45538 0.875681 2.13451 0.901897C1.82385 0.927279 1.68169 0.972168 1.59164 1.01805C1.34467 1.14389 1.14389 1.34467 1.01805 1.59164C0.972168 1.68169 0.927279 1.82385 0.901897 2.13451C0.875681 2.45538 0.875 2.873 0.875 3.5V7C0.875 7.627 0.875681 8.04462 0.901897 8.36549C0.927279 8.67615 0.972168 8.81831 1.01805 8.90836C1.14389 9.15533 1.34467 9.35611 1.59164 9.48195C1.68169 9.52783 1.82385 9.57272 2.13451 9.5981C2.27598 9.60966 2.43626 9.61626 2.625 9.62002V10.4952C1.95159 10.4823 1.53474 10.435 1.1944 10.2616C0.782791 10.0519 0.448146 9.71721 0.238423 9.3056C0 8.83767 0 8.22511 0 7V3.5C0 2.27488 0 1.66233 0.238423 1.1944C0.448146 0.782791 0.782791 0.448146 1.1944 0.238423C1.66233 0 2.27489 0 3.5 0H7C8.22511 0 8.83767 0 9.3056 0.238423C9.71721 0.448146 10.0519 0.782791 10.2616 1.1944C10.435 1.53474 10.4823 1.95159 10.4952 2.625H9.62002C9.61626 2.43626 9.60966 2.27598 9.5981 2.13451C9.57272 1.82385 9.52783 1.68169 9.48195 1.59164C9.35611 1.34467 9.15533 1.14389 8.90836 1.01805C8.81831 0.972168 8.67615 0.927279 8.36549 0.901897C8.04462 0.875681 7.627 0.875 7 0.875Z" fill="#686F79"/>
<path fill-rule="evenodd" clip-rule="evenodd" d="M3.5 7C3.5 5.77489 3.5 5.16233 3.73842 4.6944C3.94815 4.28279 4.28279 3.94815 4.6944 3.73842C5.16233 3.5 5.77489 3.5 7 3.5H10.5C11.7251 3.5 12.3377 3.5 12.8056 3.73842C13.2172 3.94815 13.5519 4.28279 13.7616 4.6944C14 5.16233 14 5.77489 14 7V10.5C14 11.7251 14 12.3377 13.7616 12.8056C13.5519 13.2172 13.2172 13.5519 12.8056 13.7616C12.3377 14 11.7251 14 10.5 14H7C5.77489 14 5.16233 14 4.6944 13.7616C4.28279 13.5519 3.94815 13.2172 3.73842 12.8056C3.5 12.3377 3.5 11.7251 3.5 10.5V7ZM7 4.375H10.5C11.127 4.375 11.5446 4.37568 11.8655 4.4019C12.1762 4.42728 12.3183 4.47217 12.4084 4.51805C12.6553 4.64389 12.8561 4.84467 12.9819 5.09164C13.0278 5.18169 13.0727 5.32385 13.0981 5.63451C13.1243 5.95538 13.125 6.373 13.125 7V10.5C13.125 11.127 13.1243 11.5446 13.0981 11.8655C13.0727 12.1762 13.0278 12.3183 12.9819 12.4084C12.8561 12.6553 12.6553 12.8561 12.4084 12.9819C12.3183 13.0278 12.1762 13.0727 11.8655 13.0981C11.5446 13.1243 11.127 13.125 10.5 13.125H7C6.373 13.125 5.95538 13.1243 5.63451 13.0981C5.32385 13.0727 5.18169 13.0278 5.09164 12.9819C4.84467 12.8561 4.64389 12.6553 4.51805 12.4084C4.47217 12.3183 4.42728 12.1762 4.4019 11.8655C4.37568 11.5446 4.375 11.127 4.375 10.5V7C4.375 6.373 4.37568 5.95538 4.4019 5.63451C4.42728 5.32385 4.47217 5.18169 4.51805 5.09164C4.64389 4.84467 4.84467 4.64389 5.09164 4.51805C5.18169 4.47217 5.32385 4.42728 5.63451 4.4019C5.95538 4.37568 6.373 4.375 7 4.375Z" fill="#686F79"/>
</svg>
