<svg width="16" height="16" viewBox="0 0 16 16" fill="none" xmlns="http://www.w3.org/2000/svg">
<path d="M15.804 1.92595L14.074 0.195958C13.8128 -0.065319 13.3892 -0.0653193 13.1279 0.195957L12.5155 0.808366L15.1916 3.48453L15.804 2.87212C16.0653 2.61084 16.0653 2.18723 15.804 1.92595Z" fill="#2A2B2D"/>
<path d="M11.8084 1.51547L14.4845 4.19163L10.1904 8.48572C10.0881 8.58808 9.95528 8.65448 9.81198 8.67495L7.57288 8.99482C7.24172 9.04213 6.95787 8.75828 7.00518 8.42712L7.32505 6.18802C7.34552 6.04472 7.41192 5.91192 7.51428 5.80956L11.8084 1.51547Z" fill="#2A2B2D"/>
<path d="M8.4954 2H3C1.89543 2 1 2.89543 1 4V13C1 14.1046 1.89543 15 3 15H12C13.1046 15 14 14.1046 14 13V7.50457L15 6.50457V13C15 14.6569 13.6569 16 12 16H3C1.34315 16 0 14.6569 0 13V4C0 2.34315 1.34315 1 3 1H9.4954L8.4954 2Z" fill="#2A2B2D"/>
</svg>
