<svg width="12" height="12" viewBox="0 0 12 12" fill="none" xmlns="http://www.w3.org/2000/svg">
<path fill-rule="evenodd" clip-rule="evenodd" d="M0 0.75C0 0.335786 0.335786 0 0.75 0H11.25C11.6642 0 12 0.335786 12 0.75C12 1.16421 11.6642 1.5 11.25 1.5H0.75C0.335786 1.5 0 1.16421 0 0.75Z" fill="#2A2B2D"/>
<path fill-rule="evenodd" clip-rule="evenodd" d="M0 6C0 5.58579 0.335786 5.25 0.75 5.25H11.25C11.6642 5.25 12 5.58579 12 6C12 6.41421 11.6642 6.75 11.25 6.75H0.75C0.335786 6.75 0 6.41421 0 6Z" fill="#2A2B2D"/>
<path fill-rule="evenodd" clip-rule="evenodd" d="M0 11.25C0 10.8358 0.335786 10.5 0.75 10.5H11.25C11.6642 10.5 12 10.8358 12 11.25C12 11.6642 11.6642 12 11.25 12H0.75C0.335786 12 0 11.6642 0 11.25Z" fill="#2A2B2D"/>
</svg>
