<svg width="28" height="28" viewBox="0 0 28 28" fill="none" xmlns="http://www.w3.org/2000/svg">
<path fill-rule="evenodd" clip-rule="evenodd" d="M0.762954 3.82207C0 5.31945 0 7.27963 0 11.2V16.8C0 20.7204 0 22.6806 0.762954 24.1779C1.43407 25.4951 2.50493 26.5659 3.82207 27.237C5.31945 28 7.27963 28 11.2 28H16.8C20.7204 28 22.6806 28 24.1779 27.237C25.4951 26.5659 26.5659 25.4951 27.237 24.1779C28 22.6806 28 20.7204 28 16.8V11.2C28 7.27963 28 5.31945 27.237 3.82207C26.5659 2.50493 25.4951 1.43407 24.1779 0.762954C22.6806 0 20.7204 0 16.8 0H11.2C7.27963 0 5.31945 0 3.82207 0.762954C2.50493 1.43407 1.43407 2.50493 0.762954 3.82207ZM14 5.25C14.4832 5.25 14.875 5.64175 14.875 6.125V13.125H21.875C22.3582 13.125 22.75 13.5168 22.75 14C22.75 14.4832 22.3582 14.875 21.875 14.875H14.875V22.75C14.875 23.2332 14.4832 23.625 14 23.625C13.5168 23.625 13.125 23.2332 13.125 22.75V14.875H6.125C5.64175 14.875 5.25 14.4832 5.25 14C5.25 13.5168 5.64175 13.125 6.125 13.125H13.125V6.125C13.125 5.64175 13.5168 5.25 14 5.25Z" fill="white"/>
</svg>
