<svg width="28" height="28" viewBox="0 0 28 28" fill="none" xmlns="http://www.w3.org/2000/svg">
<path fill-rule="evenodd" clip-rule="evenodd" d="M17.5 3.28126L10.5 3.28137V6.125C10.5 7.0915 9.7165 7.875 8.75 7.875C7.7835 7.875 7 7.0915 7 6.125V3.33162C5.97044 3.39448 5.24001 3.5358 4.61655 3.85347C4.12537 4.10374 3.67984 4.42813 3.29414 4.8125H3.28125V4.82539C2.89688 5.21109 2.57249 5.65661 2.32222 6.1478C1.75 7.27084 1.75 8.74097 1.75 11.6813V17.85C1.75 20.7903 1.75 22.2604 2.32222 23.3835C2.57249 23.8746 2.89688 24.3202 3.28125 24.7059V24.7188H3.29414C3.67984 25.1031 4.12536 25.4275 4.61655 25.6778C5.73959 26.25 7.20972 26.25 10.15 26.25H17.85C20.7903 26.25 22.2604 26.25 23.3835 25.6778C23.8746 25.4275 24.3202 25.1031 24.7059 24.7188H24.7188V24.7059C25.1031 24.3202 25.4275 23.8746 25.6778 23.3835C26.25 22.2604 26.25 20.7903 26.25 17.85V11.6813C26.25 8.74097 26.25 7.27084 25.6778 6.1478C25.4275 5.65661 25.1031 5.21109 24.7188 4.82539V4.8125H24.7059C24.3202 4.42813 23.8746 4.10374 23.3835 3.85347C22.76 3.5358 22.0296 3.39448 21 3.33162V6.125C21 7.0915 20.2165 7.875 19.25 7.875C18.2835 7.875 17.5 7.0915 17.5 6.125V3.28126ZM11.9309 20.3157C11.6684 20.3997 11.3901 20.4417 11.0961 20.4417C10.7391 20.4417 10.4241 20.3839 10.1511 20.2684C9.88865 20.153 9.65765 19.9954 9.45815 19.7959C9.26915 19.5965 9.1169 19.3654 9.0014 19.103C8.8964 18.8405 8.8229 18.5674 8.7809 18.284H6.7334C6.7649 18.809 6.88565 19.3025 7.09565 19.7645C7.30565 20.2265 7.58915 20.6307 7.94615 20.9772C8.31365 21.3132 8.75465 21.5809 9.26915 21.7805C9.79415 21.9799 10.3821 22.0797 11.0331 22.0797C11.6316 22.0797 12.1986 22.0062 12.7341 21.8592C13.2696 21.7122 13.7369 21.4969 14.1359 21.2134C14.5454 20.9194 14.8656 20.5572 15.0966 20.1267C15.3276 19.6857 15.4431 19.1765 15.4431 18.5989C15.4431 18.3154 15.4011 18.0372 15.3171 17.7642C15.2436 17.4807 15.1281 17.2182 14.9706 16.9767C14.8131 16.7247 14.6189 16.5042 14.3879 16.3152C14.1569 16.1157 13.8944 15.953 13.6004 15.827C14.0414 15.5855 14.4089 15.2494 14.7029 14.8189C14.9969 14.3779 15.1439 13.8792 15.1439 13.3227C15.1439 12.7872 15.0284 12.3252 14.7974 11.9367C14.5769 11.5482 14.2829 11.228 13.9154 10.9759C13.5584 10.7239 13.1436 10.5402 12.6711 10.4247C12.2091 10.3092 11.7419 10.2514 11.2694 10.2514C9.9569 10.2514 8.9174 10.5769 8.1509 11.2279C7.3949 11.8684 6.9539 12.761 6.8279 13.9054H8.89115C8.94365 13.3069 9.16415 12.8239 9.55265 12.4564C9.95165 12.0785 10.4819 11.8894 11.1434 11.8894C11.3744 11.8894 11.6001 11.9262 11.8206 11.9997C12.0411 12.0627 12.2354 12.1572 12.4034 12.2832C12.5714 12.4092 12.7026 12.5667 12.7971 12.7557C12.9021 12.9447 12.9546 13.1652 12.9546 13.4172C12.9546 13.9527 12.7131 14.3674 12.2301 14.6614C11.7576 14.945 11.1119 15.0867 10.2929 15.0867H9.9149V16.7877H10.3716C10.7811 16.7877 11.1591 16.8244 11.5056 16.898C11.8521 16.9609 12.1514 17.0712 12.4034 17.2287C12.6659 17.3757 12.8706 17.57 13.0176 17.8114C13.1646 18.0424 13.2381 18.326 13.2381 18.6619C13.2381 18.9349 13.1804 19.1817 13.0649 19.4022C12.9599 19.6122 12.8076 19.7959 12.6081 19.9535C12.4191 20.1109 12.1934 20.2317 11.9309 20.3157ZM18.5185 13.3384V21.875H20.692V10.4562H19.0382C18.9017 10.7712 18.7442 11.0179 18.5657 11.1964C18.3977 11.375 18.193 11.5114 17.9515 11.6059C17.7205 11.7004 17.4475 11.7634 17.1325 11.7949C16.828 11.8264 16.471 11.8474 16.0615 11.8579V13.3384H18.5185Z" fill="white"/>
<path d="M20.125 2.625C20.125 2.14175 19.7332 1.75 19.25 1.75C18.7668 1.75 18.375 2.14175 18.375 2.625V6.125C18.375 6.60825 18.7668 7 19.25 7C19.7332 7 20.125 6.60825 20.125 6.125V2.625Z" fill="white"/>
<path d="M9.625 2.625V6.125C9.625 6.60825 9.23325 7 8.75 7C8.26675 7 7.875 6.60825 7.875 6.125V2.625C7.875 2.14175 8.26675 1.75 8.75 1.75C9.23325 1.75 9.625 2.14175 9.625 2.625Z" fill="white"/>
</svg>
