<svg width="28" height="28" viewBox="0 0 28 28" fill="none" xmlns="http://www.w3.org/2000/svg">
<path d="M19.25 20.125C19.25 21.5747 18.0747 22.75 16.625 22.75H5.25C2.35043 22.75 0 20.3996 0 17.5V7.875C0 6.4253 1.1753 5.25 2.625 5.25H14C16.8996 5.25 19.25 7.60043 19.25 10.5V20.125ZM25.8999 6.82483L22.0499 9.71235C21.3889 10.2081 20.9998 10.9862 20.9998 11.8123L21 16.1873C21 17.0135 21.389 17.7916 22.05 18.2873L25.9 21.1748C26.7652 21.8237 28 21.2063 28 20.1248V7.87484C28 6.79316 26.7652 6.17575 25.8999 6.82483Z" fill="white"/>
</svg>
