<svg width="17" height="17" viewBox="0 0 17 17" fill="none" xmlns="http://www.w3.org/2000/svg">
<path fill-rule="evenodd" clip-rule="evenodd" d="M2.50063 5.73085C2.13277 6.03939 1.94884 6.19367 1.81663 6.38242C1.69949 6.54966 1.61252 6.73612 1.55966 6.93335C1.5 7.15594 1.5 7.39601 1.5 7.87614V12.6951C1.5 13.6752 1.5 14.1653 1.69074 14.5396C1.85852 14.8689 2.12623 15.1366 2.45552 15.3044C2.82986 15.4951 3.31991 15.4951 4.3 15.4951H4.3875C5.36759 15.4951 5.85764 15.4951 6.23198 15.3044C6.56127 15.1366 6.82898 14.8689 6.99676 14.5396C7.1875 14.1653 7.1875 13.6752 7.1875 12.6951V11.1201C7.1875 10.7124 7.1875 10.5086 7.25411 10.3478C7.34291 10.1334 7.51325 9.96304 7.72765 9.87423C7.88845 9.80763 8.0923 9.80763 8.5 9.80763C8.9077 9.80763 9.11155 9.80763 9.27235 9.87423C9.48675 9.96304 9.65709 10.1334 9.74589 10.3478C9.8125 10.5086 9.8125 10.7124 9.8125 11.1201V12.6951C9.8125 13.6752 9.8125 14.1653 10.0032 14.5396C10.171 14.8689 10.4387 15.1366 10.768 15.3044C11.1424 15.4951 11.6324 15.4951 12.6125 15.4951H12.7C13.6801 15.4951 14.1701 15.4951 14.5445 15.3044C14.8738 15.1366 15.1415 14.8689 15.3093 14.5396C15.5 14.1653 15.5 13.6752 15.5 12.6951V7.87614C15.5 7.39601 15.5 7.15594 15.4403 6.93335C15.3875 6.73612 15.3005 6.54966 15.1834 6.38242C15.0512 6.19367 14.8672 6.03939 14.4994 5.73084L11.199 2.96271C10.2394 2.15779 9.75953 1.75533 9.22334 1.60163C8.75063 1.46612 8.24937 1.46612 7.77666 1.60163C7.24047 1.75533 6.76063 2.15779 5.80096 2.96271L2.50063 5.73085ZM3.14327 6.49702C2.73412 6.8402 2.67468 6.90046 2.6357 6.95611C2.58549 7.02779 2.54822 7.1077 2.52557 7.19223C2.50798 7.25785 2.5 7.34212 2.5 7.87614V12.6951C2.5 13.2017 2.50078 13.5214 2.52052 13.7631C2.53931 13.9931 2.57018 14.0629 2.58174 14.0856C2.65365 14.2267 2.76839 14.3415 2.90951 14.4134C2.93221 14.425 3.00206 14.4558 3.23204 14.4746C3.47368 14.4943 3.79345 14.4951 4.3 14.4951H4.3875C4.89405 14.4951 5.21382 14.4943 5.45546 14.4746C5.68544 14.4558 5.75529 14.425 5.77799 14.4134C5.91911 14.3415 6.03385 14.2267 6.10576 14.0856C6.11732 14.0629 6.14819 13.9931 6.16698 13.7631C6.18672 13.5214 6.1875 13.2017 6.1875 12.6951L6.1875 11.0949C6.18748 10.913 6.18745 10.73 6.19815 10.5733C6.20994 10.4004 6.23804 10.1877 6.33023 9.9651C6.52053 9.50567 6.88554 9.14066 7.34497 8.95036C7.56752 8.85817 7.78023 8.83007 7.95317 8.81827C8.10989 8.80758 8.29288 8.8076 8.47481 8.80763H8.52519C8.70712 8.8076 8.89011 8.80758 9.04683 8.81827C9.21977 8.83007 9.43248 8.85817 9.65503 8.95036C10.1145 9.14066 10.4795 9.50567 10.6698 9.9651C10.762 10.1877 10.7901 10.4004 10.8019 10.5733C10.8125 10.73 10.8125 10.913 10.8125 11.0949L10.8125 12.6951C10.8125 13.2017 10.8133 13.5214 10.833 13.7631C10.8518 13.9931 10.8827 14.0629 10.8942 14.0856C10.9662 14.2267 11.0809 14.3415 11.222 14.4134C11.2447 14.425 11.3146 14.4558 11.5445 14.4746C11.7862 14.4943 12.106 14.4951 12.6125 14.4951H12.7C13.2065 14.4951 13.5263 14.4943 13.768 14.4746C13.9979 14.4558 14.0678 14.425 14.0905 14.4134C14.2316 14.3415 14.3463 14.2267 14.4183 14.0856C14.4298 14.0629 14.4607 13.9931 14.4795 13.7631C14.4992 13.5214 14.5 13.2017 14.5 12.6951V7.87614C14.5 7.34212 14.492 7.25785 14.4744 7.19223C14.4518 7.1077 14.4145 7.02779 14.3643 6.95612C14.3253 6.90046 14.2659 6.8402 13.8567 6.49702L10.5564 3.72889C10.0651 3.31683 9.73838 3.04363 9.46905 2.85019C9.20994 2.6641 9.06215 2.5957 8.94778 2.56291C8.65515 2.47903 8.34485 2.47903 8.05222 2.56291C7.93785 2.5957 7.79006 2.6641 7.53095 2.85019C7.26162 3.04363 6.93487 3.31683 6.44359 3.72889L3.14327 6.49702Z" fill="#2A2B2D"/>
</svg>
