<svg width="28" height="28" viewBox="0 0 28 28" fill="none" xmlns="http://www.w3.org/2000/svg">
<path fill-rule="evenodd" clip-rule="evenodd" d="M0.381477 5.41103C0 6.15972 0 7.13982 0 9.1V18.9C0 20.8602 0 21.8403 0.381477 22.589C0.717034 23.2475 1.25247 23.783 1.91103 24.1185C2.65972 24.5 3.63982 24.5 5.6 24.5H22.4C24.3602 24.5 25.3403 24.5 26.089 24.1185C26.7475 23.783 27.283 23.2475 27.6185 22.589C28 21.8403 28 20.8602 28 18.9V9.1C28 7.13982 28 6.15972 27.6185 5.41103C27.283 4.75247 26.7475 4.21703 26.089 3.88148C25.3403 3.5 24.3602 3.5 22.4 3.5H5.6C3.63982 3.5 2.65972 3.5 1.91103 3.88148C1.25247 4.21703 0.717034 4.75247 0.381477 5.41103ZM10.2437 13.7437L13.1258 10.8617V19.25C13.1258 19.7332 13.5175 20.125 14.0008 20.125C14.484 20.125 14.8758 19.7332 14.8758 19.25V10.8624L17.7571 13.7437C18.0988 14.0854 18.6528 14.0854 18.9945 13.7437C19.3362 13.402 19.3362 12.848 18.9945 12.5063L14.6195 8.13128C14.4431 7.9549 14.2101 7.86956 13.979 7.87527C13.7621 7.88044 13.5468 7.96578 13.3813 8.1313L9.00628 12.5063C8.66457 12.848 8.66457 13.402 9.00628 13.7437C9.34799 14.0854 9.90201 14.0854 10.2437 13.7437Z" fill="white"/>
</svg>
