<svg width="17" height="17" viewBox="0 0 17 17" fill="none" xmlns="http://www.w3.org/2000/svg">
<path d="M2.5 3.5C2.5 2.94772 2.94772 2.5 3.5 2.5H6.5C7.05228 2.5 7.5 2.94772 7.5 3.5V13.5C7.5 14.0523 7.05228 14.5 6.5 14.5H3.5C2.94772 14.5 2.5 14.0523 2.5 13.5V3.5Z" fill="#686F79"/>
<path fill-rule="evenodd" clip-rule="evenodd" d="M3.5 0.5C1.84315 0.5 0.5 1.84315 0.5 3.5V13.5C0.5 15.1569 1.84315 16.5 3.5 16.5H13.5C15.1569 16.5 16.5 15.1569 16.5 13.5V3.5C16.5 1.84315 15.1569 0.5 13.5 0.5H3.5ZM13.5 1.5H3.5C2.39543 1.5 1.5 2.39543 1.5 3.5V13.5C1.5 14.6046 2.39543 15.5 3.5 15.5H13.5C14.6046 15.5 15.5 14.6046 15.5 13.5V3.5C15.5 2.39543 14.6046 1.5 13.5 1.5Z" fill="#686F79"/>
</svg>
