<svg width="17" height="17" viewBox="0 0 17 17" fill="none" xmlns="http://www.w3.org/2000/svg">
<path d="M3.41699 9.86426C3.16634 9.86426 2.9362 9.80273 2.72656 9.67969C2.52148 9.55664 2.35742 9.39258 2.23438 9.1875C2.11133 8.98242 2.0498 8.75228 2.0498 8.49707C2.0498 8.24642 2.11133 8.01855 2.23438 7.81348C2.35742 7.60384 2.52148 7.4375 2.72656 7.31445C2.9362 7.19141 3.16634 7.12988 3.41699 7.12988C3.80436 7.12988 4.13249 7.26432 4.40137 7.5332C4.67025 7.79753 4.80469 8.11882 4.80469 8.49707C4.80469 8.75228 4.74089 8.98242 4.61328 9.1875C4.49023 9.39258 4.32389 9.55664 4.11426 9.67969C3.90918 9.80273 3.67676 9.86426 3.41699 9.86426ZM8.49609 9.86426C8.24544 9.86426 8.0153 9.80273 7.80566 9.67969C7.60059 9.55664 7.43652 9.39258 7.31348 9.1875C7.19499 8.98242 7.13574 8.75228 7.13574 8.49707C7.13574 8.24642 7.19499 8.01855 7.31348 7.81348C7.43652 7.60384 7.60059 7.4375 7.80566 7.31445C8.0153 7.19141 8.24544 7.12988 8.49609 7.12988C8.87435 7.12988 9.19564 7.26432 9.45996 7.5332C9.72884 7.79753 9.86328 8.11882 9.86328 8.49707C9.86328 8.75228 9.80176 8.98242 9.67871 9.1875C9.55566 9.39258 9.3916 9.55664 9.18652 9.67969C8.98145 9.80273 8.7513 9.86426 8.49609 9.86426ZM13.5752 9.86426C13.32 9.86426 13.0876 9.80273 12.8779 9.67969C12.6683 9.55664 12.502 9.39258 12.3789 9.1875C12.2559 8.98242 12.1943 8.75228 12.1943 8.49707C12.1943 8.24642 12.2559 8.01855 12.3789 7.81348C12.502 7.60384 12.6683 7.4375 12.8779 7.31445C13.0876 7.19141 13.32 7.12988 13.5752 7.12988C13.9535 7.12988 14.2747 7.26432 14.5391 7.5332C14.8079 7.79753 14.9424 8.11882 14.9424 8.49707C14.9424 8.75228 14.8809 8.98242 14.7578 9.1875C14.6348 9.39258 14.4684 9.55664 14.2588 9.67969C14.0537 9.80273 13.8258 9.86426 13.5752 9.86426Z" fill="#686F79"/>
</svg>
