<svg width="17" height="17" viewBox="0 0 17 17" fill="none" xmlns="http://www.w3.org/2000/svg">
<path d="M8.50029 1.5C6.28604 1.5 4.28269 2.39892 2.83365 3.85295C2.63873 4.04854 2.32214 4.04909 2.12655 3.85416C1.93095 3.65923 1.93041 3.34265 2.12533 3.14705C3.75432 1.51246 6.00954 0.5 8.50029 0.5C10.991 0.5 13.2463 1.51246 14.8752 3.14706C15.0702 3.34265 15.0696 3.65923 14.874 3.85416C14.6784 4.04909 14.3619 4.04854 14.1669 3.85294C12.7179 2.39892 10.7145 1.5 8.50029 1.5Z" fill="#686F79"/>
<path fill-rule="evenodd" clip-rule="evenodd" d="M4.5 8.5C3.39543 8.5 2.5 9.39543 2.5 10.5V14.5C2.5 15.6046 3.39543 16.5 4.5 16.5H12.5C13.6046 16.5 14.5 15.6046 14.5 14.5V10.5C14.5 9.39543 13.6046 8.5 12.5 8.5H4.5ZM12.5 9.5H4.5C3.94772 9.5 3.5 9.94772 3.5 10.5V14.5C3.5 15.0523 3.94772 15.5 4.5 15.5H12.5C13.0523 15.5 13.5 15.0523 13.5 14.5V10.5C13.5 9.94772 13.0523 9.5 12.5 9.5Z" fill="#686F79"/>
<path d="M4.89978 6.79985C5.72163 5.70597 7.02831 5 8.50003 5C9.97175 5 11.2784 5.70597 12.1003 6.79985C12.2662 7.02062 12.5796 7.06513 12.8004 6.89926C13.0211 6.73339 13.0656 6.41995 12.8998 6.19917C11.8972 4.86472 10.2995 4 8.50003 4C6.70055 4 5.10289 4.86472 4.10028 6.19917C3.93441 6.41995 3.97892 6.73339 4.19969 6.89926C4.42047 7.06513 4.7339 7.02062 4.89978 6.79985Z" fill="#686F79"/>
</svg>
