<svg width="16" height="16" viewBox="0 0 16 16" fill="none" xmlns="http://www.w3.org/2000/svg">
<path fill-rule="evenodd" clip-rule="evenodd" d="M13.6504 6.35907C15.7209 3.66509 12.209 0.287582 9.40782 2.27879C9.28669 2.36489 9.1724 2.45955 9.06589 2.56199L1.53572 9.80403C1.29878 10.0319 0.914636 10.0319 0.677701 9.80403C0.440766 9.57616 0.440766 9.20671 0.677701 8.97884L8.20787 1.7368C8.35698 1.59339 8.51699 1.46087 8.68657 1.34032C12.6082 -1.44736 17.5248 3.28114 14.6262 7.05272C14.5009 7.21581 14.3631 7.3697 14.214 7.51311L6.82584 14.6186C6.70769 14.7322 6.57998 14.8362 6.44402 14.9296C3.65584 16.845 0.220744 13.5413 2.2123 10.8598C2.30942 10.7291 2.41761 10.6063 2.53576 10.4926L9.05532 4.22252C9.25513 4.03036 9.4987 3.88558 9.76677 3.79965C11.1897 3.3435 12.5434 4.6454 12.0691 6.01386C11.9797 6.27166 11.8292 6.50592 11.6294 6.69808L5.8258 12.2796C5.58887 12.5075 5.20472 12.5075 4.96779 12.2796C4.73085 12.0517 4.73085 11.6823 4.96779 11.4544L10.7714 5.8729C10.838 5.80884 10.8881 5.73076 10.9179 5.64482C11.076 5.18867 10.6248 4.7547 10.1505 4.90675C10.0611 4.9354 9.97994 4.98366 9.91334 5.04771L3.39378 11.3178C3.32289 11.386 3.25797 11.4597 3.1997 11.5381C2.00477 13.147 4.06582 15.1292 5.73873 13.98C5.82031 13.924 5.89694 13.8615 5.96783 13.7934L13.356 6.68792C13.4625 6.58549 13.5609 6.47556 13.6504 6.35907Z" fill="#8E9194"/>
</svg>
