<svg width="17" height="17" viewBox="0 0 17 17" fill="none" xmlns="http://www.w3.org/2000/svg">
<path d="M5.43741 2.5C5.85101 2.5 6.1875 2.83651 6.1875 3.25011V4.27501C6.1875 4.47531 6.1095 4.66381 5.9678 4.80551L5.04971 5.7236C4.57221 6.2013 4.42812 6.90671 4.68292 7.52121C5.57672 9.67511 7.3249 11.4233 9.4794 12.3175C9.6762 12.399 9.88459 12.4404 10.0987 12.4404C10.5358 12.4404 10.9652 12.2618 11.2766 11.9503L12.1948 11.032C12.3342 10.8926 12.5272 10.8126 12.7246 10.8126H13.7501C14.1637 10.8126 14.5001 11.149 14.5001 11.5626V12.8751C14.5001 13.7711 13.7644 14.5 12.8572 14.5C7.14631 14.4904 2.50012 9.83621 2.50012 4.12511C2.50012 3.22911 3.22911 2.50011 4.12521 2.50011L5.43741 2.5ZM5.43741 1.5L4.125 1.50011C2.6752 1.50011 1.5 2.67531 1.5 4.12511C1.5 10.4007 6.58222 15.4894 12.8553 15.5H12.8598C14.3116 15.5 15.4999 14.3274 15.4999 12.8751V11.5626C15.4999 10.596 14.7163 9.81261 13.7499 9.81261H12.7244C12.2604 9.81261 11.8153 9.9969 11.4873 10.3251L10.5692 11.2433C10.4427 11.3698 10.2715 11.4404 10.0985 11.4404C10.0185 11.4404 9.9383 11.4253 9.862 11.3936C7.9393 10.5956 6.40409 9.06051 5.60629 7.13791C5.50619 6.89641 5.57181 6.61571 5.75671 6.43071L6.6748 5.51251C7.0029 5.18431 7.18741 4.73911 7.18741 4.27501V3.25011C7.18761 2.28351 6.40401 1.5 5.43741 1.5Z" fill="#686F79"/>
</svg>
