<svg width="17" height="17" viewBox="0 0 17 17" fill="none" xmlns="http://www.w3.org/2000/svg">
<path d="M2.84998 8.49951C2.84998 8.66813 2.90922 8.81169 3.02771 8.93018C3.15076 9.04867 3.29431 9.10791 3.45837 9.10791H7.88123V13.5308C7.88123 13.6948 7.94047 13.8361 8.05896 13.9546C8.17745 14.0776 8.321 14.1392 8.48962 14.1392C8.65824 14.1392 8.8018 14.0776 8.92029 13.9546C9.04333 13.8361 9.10486 13.6948 9.10486 13.5308V9.10791H13.5209C13.6849 9.10791 13.8262 9.04867 13.9447 8.93018C14.0677 8.81169 14.1293 8.66813 14.1293 8.49951C14.1293 8.33089 14.0677 8.18734 13.9447 8.06885C13.8262 7.9458 13.6849 7.88428 13.5209 7.88428H9.10486V3.46826C9.10486 3.3042 9.04333 3.16292 8.92029 3.04443C8.8018 2.92139 8.65824 2.85986 8.48962 2.85986C8.321 2.85986 8.17745 2.92139 8.05896 3.04443C7.94047 3.16292 7.88123 3.3042 7.88123 3.46826V7.88428H3.45837C3.29431 7.88428 3.15076 7.9458 3.02771 8.06885C2.90922 8.18734 2.84998 8.33089 2.84998 8.49951Z" fill="#555B62"/>
</svg>
