<svg width="16" height="16" viewBox="0 0 16 16" fill="none" xmlns="http://www.w3.org/2000/svg">
<path d="M1.99805 4.49805C1.99805 3.11733 3.11733 1.99805 4.49805 1.99805H7.00049C7.27663 1.99805 7.50049 1.77419 7.50049 1.49805C7.50049 1.2219 7.27663 0.998047 7.00049 0.998047H4.49805C2.56505 0.998047 0.998047 2.56505 0.998047 4.49805V11.5019C0.998047 13.4349 2.56505 15.0019 4.49805 15.0019H11.5028C13.4358 15.0019 15.0028 13.4349 15.0028 11.5019V9.00043C15.0028 8.72428 14.7789 8.50043 14.5028 8.50043C14.2266 8.50043 14.0028 8.72428 14.0028 9.00043V11.5019C14.0028 12.8826 12.8835 14.0019 11.5028 14.0019H4.49805C3.11734 14.0019 1.99805 12.8826 1.99805 11.5019V4.49805Z" fill="#2A2B2D"/>
<path d="M10.056 1.00043C9.7799 1.00043 9.55604 1.22428 9.55604 1.50043C9.55604 1.77657 9.7799 2.00043 10.056 2.00043H13.2934L6.64693 8.64687C6.45167 8.84214 6.45167 9.15872 6.64693 9.35398C6.8422 9.54924 7.15878 9.54924 7.35404 9.35398L14.0005 2.70753L14.0005 5.94487C14.0005 6.22101 14.2243 6.44487 14.5005 6.44487C14.7766 6.44487 15.0005 6.22101 15.0005 5.94487L15.0005 1.50043C15.0005 1.22428 14.7766 1.00043 14.5005 1.00043H10.056Z" fill="#2A2B2D"/>
</svg>
