<svg width="17" height="17" viewBox="0 0 17 17" fill="none" xmlns="http://www.w3.org/2000/svg">
<path d="M7.78305 2.5C10.5445 2.5 12.7831 4.73858 12.7831 7.5C12.7831 8.70064 12.3595 9.80213 11.6541 10.6641L14.6366 13.6465L14.701 13.7246C14.8292 13.9187 14.8074 14.1827 14.6366 14.3535C14.4657 14.5244 14.2017 14.5461 14.0077 14.418L13.9295 14.3535L10.9471 11.3711C10.0852 12.0764 8.98369 12.5 7.78305 12.5C5.02163 12.5 2.78305 10.2614 2.78305 7.5C2.78305 4.73858 5.02163 2.5 7.78305 2.5ZM7.78305 3.5C5.57391 3.5 3.78305 5.29086 3.78305 7.5C3.78305 9.70914 5.57391 11.5 7.78305 11.5C9.99219 11.5 11.7831 9.70914 11.7831 7.5C11.7831 5.29086 9.99219 3.5 7.78305 3.5Z" fill="#686F79"/>
</svg>
