<svg width="17" height="17" viewBox="0 0 17 17" fill="none" xmlns="http://www.w3.org/2000/svg">
<path fill-rule="evenodd" clip-rule="evenodd" d="M6.40137 9.70361C6.62012 10.0682 6.91178 10.3599 7.27637 10.5786C7.64551 10.7974 8.05111 10.9067 8.49316 10.9067C8.93522 10.9067 9.33854 10.7974 9.70312 10.5786C10.0723 10.3599 10.3639 10.0682 10.5781 9.70361C10.7969 9.33447 10.9062 8.92887 10.9062 8.48682C10.9062 8.04476 10.7969 7.64372 10.5781 7.28369C10.3639 6.91911 10.0723 6.62744 9.70312 6.40869C9.33854 6.18994 8.93522 6.08057 8.49316 6.08057C8.05111 6.08057 7.64779 6.18994 7.2832 6.40869C6.91862 6.62744 6.62695 6.91911 6.4082 7.28369C6.18945 7.64372 6.08008 8.04476 6.08008 8.48682C6.08008 8.92887 6.18717 9.33447 6.40137 9.70361ZM9.19332 9.71831L9.18863 9.72112C8.9858 9.84282 8.76151 9.90674 8.49316 9.90674C8.2258 9.90674 7.99785 9.84324 7.78849 9.71969C7.56792 9.58687 7.39599 9.41546 7.2627 9.19548C7.14258 8.98609 7.08008 8.75651 7.08008 8.48682C7.08008 8.21845 7.14395 7.99859 7.26282 7.80295L7.2657 7.79819C7.4 7.57435 7.57386 7.40048 7.7977 7.26618C8.00053 7.14448 8.22482 7.08057 8.49316 7.08057C8.76151 7.08057 8.9858 7.14448 9.18863 7.26618L9.19332 7.26898C9.41922 7.40285 9.5887 7.57371 9.71591 7.79024L9.71966 7.79662L9.72351 7.80295C9.84238 7.99859 9.90625 8.21845 9.90625 8.48682C9.90625 8.75517 9.84228 8.98381 9.71783 9.19381L9.71591 9.19706C9.5887 9.4136 9.41921 9.58445 9.19332 9.71831Z" fill="#686F79"/>
<path fill-rule="evenodd" clip-rule="evenodd" d="M14.2012 12.6841C14.1875 12.8481 14.1191 12.9917 13.9961 13.1147L13.1143 13.9897C12.9912 14.1128 12.8499 14.1812 12.6904 14.1948C12.5355 14.2085 12.3851 14.1698 12.2393 14.0786L10.9199 13.272C10.806 13.3267 10.6852 13.3791 10.5576 13.4292C10.43 13.4793 10.3001 13.5272 10.168 13.5728L9.8125 15.0767C9.77604 15.2544 9.69629 15.3911 9.57324 15.4868C9.4502 15.5871 9.2998 15.6372 9.12207 15.6372H7.86426C7.68652 15.6372 7.53613 15.5871 7.41309 15.4868C7.29004 15.3911 7.20801 15.2544 7.16699 15.0767L6.81152 13.5728C6.67936 13.5272 6.54948 13.4793 6.42188 13.4292C6.29427 13.3791 6.1735 13.3267 6.05957 13.272L4.74707 14.0786C4.59668 14.1698 4.44173 14.2085 4.28223 14.1948C4.12728 14.1812 3.98828 14.1128 3.86523 13.9897L2.99023 13.1147C2.86719 12.9917 2.79655 12.8481 2.77832 12.6841C2.76465 12.52 2.80794 12.3651 2.9082 12.2192L3.70801 10.9136C3.65332 10.7951 3.60091 10.6743 3.55078 10.5513C3.50065 10.4282 3.45736 10.3052 3.4209 10.1821L1.90332 9.81982C1.72559 9.78337 1.58887 9.70361 1.49316 9.58057C1.39746 9.45752 1.34961 9.30713 1.34961 9.12939V7.89209C1.34961 7.71891 1.39746 7.5708 1.49316 7.44775C1.58887 7.32471 1.72559 7.24495 1.90332 7.2085L3.40723 6.84619C3.44824 6.70492 3.49382 6.57275 3.54395 6.44971C3.59863 6.32666 3.64876 6.21045 3.69434 6.10107L2.89453 4.7749C2.79427 4.62907 2.75098 4.47868 2.76465 4.32373C2.77832 4.16423 2.84896 4.02295 2.97656 3.8999L3.86523 3.01807C3.99284 2.89958 4.12956 2.83122 4.27539 2.81299C4.42578 2.79476 4.57617 2.82894 4.72656 2.91553L6.05273 3.73584C6.16667 3.67659 6.28744 3.62191 6.41504 3.57178C6.5472 3.51709 6.67936 3.46696 6.81152 3.42139L7.16699 1.91064C7.20801 1.73747 7.29004 1.60075 7.41309 1.50049C7.53613 1.40023 7.68652 1.3501 7.86426 1.3501H9.12207C9.2998 1.3501 9.4502 1.40023 9.57324 1.50049C9.69629 1.60075 9.77604 1.73747 9.8125 1.91064L10.168 3.43506C10.3092 3.48063 10.4414 3.52848 10.5645 3.57861C10.6921 3.62874 10.8105 3.68343 10.9199 3.74268L12.2598 2.91553C12.4102 2.82894 12.5583 2.79704 12.7041 2.81982C12.8499 2.83805 12.9867 2.90413 13.1143 3.01807L14.0098 3.8999C14.1374 4.02295 14.2057 4.16423 14.2148 4.32373C14.2285 4.47868 14.1875 4.62907 14.0918 4.7749L13.2852 6.10107C13.3307 6.21045 13.3786 6.32666 13.4287 6.44971C13.4834 6.57275 13.5335 6.70492 13.5791 6.84619L15.083 7.2085C15.2562 7.24495 15.3906 7.32471 15.4863 7.44775C15.5866 7.5708 15.6367 7.71891 15.6367 7.89209V9.12939C15.6367 9.30713 15.5866 9.45752 15.4863 9.58057C15.3906 9.70361 15.2562 9.78337 15.083 9.81982L13.5654 10.1821C13.5244 10.3052 13.4788 10.4282 13.4287 10.5513C13.3831 10.6743 13.3307 10.7951 13.2715 10.9136L14.0781 12.2192C14.1784 12.3651 14.2194 12.52 14.2012 12.6841ZM7.65805 12.8069L8.09068 14.6372H8.88882L9.32144 12.8069L9.84198 12.6274C9.96108 12.5863 10.0777 12.5433 10.192 12.4984C10.2987 12.4565 10.397 12.4137 10.4872 12.3705L10.9775 12.1351L12.5777 13.1134L13.1216 12.5737L12.1278 10.9649L12.3771 10.4664C12.4202 10.38 12.4581 10.2926 12.491 10.204L12.4965 10.1889L12.5026 10.174C12.5448 10.0705 12.5828 9.96786 12.6167 9.8659L12.7925 9.33855L14.6367 8.89827V8.12959L12.7996 7.68701L12.6274 7.15319C12.5916 7.04224 12.5538 6.94346 12.5149 6.85585L12.5085 6.84152L12.5026 6.827C12.4534 6.70611 12.4065 6.59236 12.3621 6.48569L12.1664 6.01607L13.128 4.43509L12.5785 3.89396L10.9526 4.89768L10.4436 4.62197C10.3735 4.58396 10.2923 4.5461 10.1988 4.50937L10.1872 4.50471C10.0897 4.465 9.9812 4.42555 9.86097 4.38677L9.32257 4.21309L8.88815 2.3501H8.0909L7.65868 4.18705L7.13751 4.36676C7.02478 4.40563 6.91141 4.44861 6.79739 4.49579L6.78907 4.49924L6.78069 4.50253C6.68355 4.54069 6.5949 4.58103 6.51409 4.62306L6.00994 4.88521L4.40424 3.892L3.85721 4.43481L4.81218 6.01826L4.61741 6.48569C4.57045 6.59839 4.51952 6.71658 4.46474 6.84012C4.43092 6.92449 4.3983 7.01916 4.36757 7.125L4.20574 7.68243L2.34961 8.12959V8.89827L4.21545 9.34372L4.3797 9.89804C4.40647 9.98841 4.43874 10.0804 4.47687 10.174C4.52138 10.2832 4.56775 10.3901 4.61597 10.4945L4.84003 10.98L3.86363 12.5739L4.40487 13.1152L6.00062 12.1344L6.4923 12.3705C6.58248 12.4137 6.68074 12.4565 6.78753 12.4984C6.90176 12.5433 7.01841 12.5863 7.13751 12.6274L7.65805 12.8069Z" fill="#686F79"/>
</svg>
