<svg width="17" height="17" viewBox="0 0 17 17" fill="none" xmlns="http://www.w3.org/2000/svg">
<path d="M9.5 1.5C10.0514 1.5 10.5 1.9486 10.5 2.5V6.5C10.5 7.0514 10.0514 7.5 9.5 7.5H6.32751C5.65961 7.5 5.03182 7.76001 4.55972 8.23221L3.5 9.2919V8.5C3.5 7.9478 3.0523 7.5 2.5 7.5C1.9486 7.5 1.5 7.0514 1.5 6.5V2.5C1.5 1.9486 1.9486 1.5 2.5 1.5H9.5ZM9.5 0.5H2.5C1.3954 0.5 0.5 1.3954 0.5 2.5V6.5C0.5 7.6045 1.3954 8.5 2.5 8.5L2.50012 10.499C2.50012 10.8004 2.74672 11 3.00372 11C3.12662 11 3.25181 10.9543 3.35361 10.8525L5.26682 8.9393C5.54812 8.6579 5.92961 8.5 6.32751 8.5H9.5C10.6046 8.5 11.5 7.6045 11.5 6.5V2.5C11.5 1.3953 10.6046 0.5 9.5 0.5ZM14.5 6H12.9997C12.7236 6 12.4997 6.2238 12.4997 6.5C12.4997 6.7761 12.7236 7 12.9997 7H14.5C15.0523 7 15.5 7.4477 15.5 8V12.0401C15.5 12.5943 15.0338 12.9892 14.4797 13.0002C13.9368 13.011 13.4999 13.4545 13.4999 14V14.7919L12.4404 13.7323C11.9715 13.2634 11.3356 13 10.6725 13H7.5C6.9477 13 6.5 12.5523 6.5 12V10.4393C6.5 10.1632 6.2762 9.9393 6 9.9393C5.7239 9.9393 5.5 10.1632 5.5 10.4393V12C5.5 13.1046 6.3954 14 7.5 14H10.6726C11.0704 14 11.452 14.158 11.7332 14.4393L13.6464 16.3525C13.7483 16.4543 13.8735 16.5 13.9964 16.5C14.2534 16.5 14.4999 16.3004 14.4999 15.999V14C15.6045 14 16.5 13.1046 16.5 12V8C16.5 6.8954 15.6046 6 14.5 6Z" fill="#686F79"/>
</svg>
