<svg width="14" height="14" viewBox="0 0 14 14" fill="none" xmlns="http://www.w3.org/2000/svg">
<path fill-rule="evenodd" clip-rule="evenodd" d="M2.625 5.6875C4.4048 5.55775 5.79149 3.63918 5.84182 1.80585C5.83923 1.7761 5.83963 1.77201 5.84043 1.76375C5.84102 1.75769 5.84182 1.74939 5.84182 1.72704C5.84182 0.77326 6.60093 0 7.53751 0C8.34229 0 9.01461 0.571576 9.18828 1.33743C9.28373 1.77466 9.34435 2.22741 9.34435 2.69384C9.34435 3.13631 9.29516 3.69752 9.20593 4.21347C9.15013 4.53613 9.07868 4.84109 8.99381 5.08824L12.2472 5.09182C12.2772 5.09182 12.3064 5.09486 12.3352 5.09936C12.8907 5.12159 13.4257 5.41292 13.7409 5.93028C13.9414 6.25928 14.0213 6.62897 13.9952 6.98748L13.9781 7.18777L13 12.0489C12.7057 13.1953 11.673 13.9974 10.4893 13.9988L9.5 14H2.625V13.9991L0.872926 13.9949C0.390488 13.9938 0 13.6024 0 13.1199V6.5625C0 6.07925 0.391751 5.6875 0.875 5.6875H2.625ZM3.5 13.1249L10.4883 13.1238C11.2659 13.1229 11.9453 12.6005 12.1472 11.8513L13.1105 7.06389L13.1228 6.91932C13.1354 6.73534 13.094 6.5502 12.9937 6.38559C12.836 6.12679 12.5732 5.98458 12.3002 5.97366L12.2498 5.97164L12.2188 5.96679L7.76867 5.96189L8.16624 4.80407C8.34618 4.28006 8.46935 3.34958 8.46935 2.69384C8.46935 2.3045 8.41892 1.91678 8.33427 1.52799C8.24532 1.1418 7.91198 0.875 7.53751 0.875C7.09926 0.875 6.71682 1.24129 6.71682 1.72704C6.71682 1.73878 6.71671 1.75084 6.71641 1.76321L6.71786 1.77986L6.71649 1.82986C6.68581 2.9474 6.253 4.06556 5.56733 4.92948C5.0437 5.58924 4.33702 6.14191 3.5 6.40485V13.1249ZM2.625 6.5625V13.1241L0.875 13.1199L0.875 6.5625L2.625 6.5625Z" fill="#686F79"/>
</svg>
