<svg width="14" height="14" viewBox="0 0 14 14" fill="none" xmlns="http://www.w3.org/2000/svg">
<path fill-rule="evenodd" clip-rule="evenodd" d="M2.625 8.3125C4.4048 8.44225 5.79149 10.3608 5.84182 12.1942C5.83923 12.2239 5.83963 12.228 5.84043 12.2362C5.84102 12.2423 5.84182 12.2506 5.84182 12.273C5.84182 13.2267 6.60093 14 7.53751 14C8.34229 14 9.01461 13.4284 9.18828 12.6626C9.28373 12.2253 9.34435 11.7726 9.34435 11.3062C9.34435 10.8637 9.29516 10.3025 9.20593 9.78653C9.15013 9.46387 9.07868 9.15891 8.99381 8.91176L12.2472 8.90818C12.2772 8.90818 12.3064 8.90514 12.3352 8.90064C12.8907 8.87841 13.4257 8.58708 13.7409 8.06972C13.9414 7.74072 14.0213 7.37103 13.9952 7.01252L13.9781 6.81223L13 1.95115C12.7057 0.804705 11.673 0.00263441 10.4893 0.00119913L9.5 0H2.625V0.00090456L0.872926 0.00505769C0.390488 0.00620091 0 0.397615 0 0.880055V7.4375C0 7.92075 0.391751 8.3125 0.875 8.3125H2.625ZM3.5 0.875079L10.4883 0.876198C11.2659 0.877141 11.9453 1.39947 12.1472 2.14868L13.1105 6.93611L13.1228 7.08068C13.1354 7.26466 13.094 7.4498 12.9937 7.61441C12.836 7.87321 12.5732 8.01542 12.3002 8.02634L12.2498 8.02836L12.2188 8.03321L7.76867 8.03811L8.16624 9.19593C8.34618 9.71994 8.46935 10.6504 8.46935 11.3062C8.46935 11.6955 8.41892 12.0832 8.33427 12.472C8.24532 12.8582 7.91198 13.125 7.53751 13.125C7.09926 13.125 6.71682 12.7587 6.71682 12.273C6.71682 12.2612 6.71671 12.2492 6.71641 12.2368L6.71786 12.2201L6.71649 12.1701C6.68581 11.0526 6.253 9.93444 5.56733 9.07052C5.0437 8.41076 4.33702 7.85809 3.5 7.59515V0.875079ZM2.625 7.4375V0.875905L0.875 0.880055L0.875 7.4375H2.625Z" fill="#686F79"/>
</svg>
