<svg width="16" height="16" viewBox="0 0 16 16" fill="none" xmlns="http://www.w3.org/2000/svg">
<path fill-rule="evenodd" clip-rule="evenodd" d="M2.1414 2.1414C2.32993 1.95287 2.63559 1.95287 2.82412 2.1414L8 7.31728L13.1759 2.1414C13.3644 1.95287 13.6701 1.95287 13.8586 2.1414C14.0471 2.32993 14.0471 2.63559 13.8586 2.82412L8.68272 8L13.8586 13.1759C14.0471 13.3644 14.0471 13.6701 13.8586 13.8586C13.6701 14.0471 13.3644 14.0471 13.1759 13.8586L8 8.68272L2.82412 13.8586C2.63559 14.0471 2.32993 14.0471 2.1414 13.8586C1.95287 13.6701 1.95287 13.3644 2.1414 13.1759L7.31728 8L2.1414 2.82412C1.95287 2.63559 1.95287 2.32993 2.1414 2.1414Z" fill="#2A2B2D"/>
</svg>
