<svg width="83" height="29" viewBox="0 0 83 29" fill="none" xmlns="http://www.w3.org/2000/svg">
<g clip-path="url(#clip0_922_94847)">
<path d="M13.2048 12.9092H15.4576L12.595 25.2089H10.0544L7.98751 15.7762L5.95478 25.2089H3.37999L0.5 12.9092H2.83794L4.80291 22.4097L6.75109 12.9092H9.24132L11.3412 22.4265L13.2048 12.9092ZM19.9302 25.4293C17.711 25.4293 15.4414 23.9531 15.4414 20.6622C15.4414 17.3706 17.711 15.8777 19.9302 15.8777C22.1494 15.8777 24.419 17.3706 24.419 20.6622C24.419 23.9531 22.1494 25.4293 19.9302 25.4293ZM22.3359 20.6622C22.3359 18.5585 21.2008 17.5237 19.9302 17.5237C18.6596 17.5237 17.5245 18.5585 17.5245 20.6622C17.5245 22.7659 18.6596 23.7838 19.9302 23.7838C21.2008 23.7838 22.3359 22.7659 22.3359 20.6622ZM29.7755 18.0834C28.5048 18.0834 27.7769 18.5921 27.7769 20.4243V25.2089H25.761V16.0812H27.7427V17.7099C28.2338 16.692 29.1147 16.0812 30.2162 16.0644C30.3685 16.0644 30.5886 16.0812 30.7409 16.0986V18.1345C30.4021 18.1003 30.0807 18.0834 29.7755 18.0834ZM34.001 19.7457L37.3715 16.0812H39.794L36.3048 19.831L40.1837 25.2089H37.829L34.9664 21.2561L34.001 22.2908V25.2089H31.9851V12.9092H34.001L34.001 19.7457ZM43.0865 17.3027C43.6286 16.4037 44.5772 15.8777 45.7968 15.8777C48.016 15.8777 49.71 17.7273 49.71 20.6453C49.71 23.5802 48.016 25.4293 45.7968 25.4293C44.5772 25.4293 43.6286 24.9032 43.0865 24.0042V28.1779H41.0712V16.0812H43.0865V17.3027ZM47.6095 20.6453C47.6095 18.7278 46.7628 17.5237 45.3567 17.5237C44.0351 17.5237 43.002 18.5417 43.002 20.6453C43.002 22.749 44.0351 23.7838 45.3567 23.7838C46.7628 23.7838 47.6095 22.5791 47.6095 20.6453ZM51.2414 25.2089V12.9092H53.2573V25.2089H51.2414ZM60.878 19.5085V19.3386C60.878 17.7778 59.9803 17.3027 58.9808 17.3027C57.9644 17.3027 57.2023 17.8456 57.1513 18.9488H55.1695C55.3051 17.0823 56.8467 15.8098 59.0485 15.8098C61.2335 15.8098 62.9446 16.8109 62.8942 19.7289C62.8942 20.1871 62.8594 21.2561 62.8594 22.0872C62.8594 23.2409 62.9614 24.4456 63.1305 25.2089H61.2845C61.2168 24.8185 61.149 24.5981 61.1154 23.9705C60.5392 24.9542 59.4551 25.4293 58.1167 25.4293C56.1349 25.4293 54.7462 24.3603 54.7462 22.698C54.7462 20.4243 57.5411 19.8478 60.878 19.5085ZM56.8803 22.647C56.8803 23.4445 57.5411 23.9195 58.5574 23.9195C60.0481 23.9195 60.9289 23.1562 60.9289 21.6122V20.9168C58.0496 21.1882 56.8803 21.5954 56.8803 22.647ZM70.7553 19.2029C70.5862 18.236 69.7395 17.5574 68.6374 17.5574C67.3842 17.5574 66.2497 18.4906 66.2497 20.6454C66.2497 22.8169 67.401 23.7495 68.587 23.7495C69.5692 23.7495 70.5694 23.3087 70.8236 22.0872H72.788C72.3815 24.2246 70.501 25.4293 68.5535 25.4293C65.9103 25.4293 64.1654 23.3766 64.1654 20.6622C64.1654 17.9477 65.9271 15.8777 68.6374 15.8777C70.6198 15.8777 72.3815 17.167 72.7208 19.2029L70.7553 19.2029ZM78.169 23.7495C79.2196 23.7495 80.0494 23.3256 80.4044 22.4776H82.3868C81.9635 23.9363 80.6083 25.4293 78.2542 25.4293C75.3232 25.4293 73.6467 23.1898 73.6467 20.5775C73.6467 17.8288 75.5259 15.8777 78.1187 15.8777C80.9129 15.8777 82.6578 18.1513 82.4887 21.2219H75.6962C75.8317 22.9184 77.0166 23.7495 78.169 23.7495ZM80.4392 19.7457C80.3876 18.3207 79.3035 17.4559 78.1187 17.4559C77.1701 17.4559 75.8653 18.0156 75.6962 19.7457H80.4392Z" fill="#686F79"/>
<path d="M7.49977 7.99012H1.53205C1.11335 7.99012 0.739256 7.73977 0.579029 7.35235C0.418802 6.96493 0.506587 6.52295 0.802666 6.22648L4.93628 2.08657H1.97364C1.15977 2.08657 0.500005 1.4258 0.500005 0.610692H6.00355C6.42221 0.610692 6.79629 0.860972 6.95653 1.24839C7.1168 1.63581 7.02906 2.07771 6.73303 2.37433L2.5994 6.51423H6.02614C6.84001 6.51423 7.49977 7.17501 7.49977 7.99012ZM33.8778 3.37798C33.8778 1.79104 32.5887 0.5 31.0042 0.5C30.1567 0.5 29.3939 0.869618 28.8675 1.45612C28.341 0.869618 27.5783 0.5 26.7307 0.5C25.1462 0.5 23.8571 1.79104 23.8571 3.37798V7.99012C24.671 7.99012 25.3307 7.32935 25.3307 6.51424V3.37798C25.3307 2.60486 25.9588 1.97588 26.7307 1.97588C27.5026 1.97588 28.1307 2.60486 28.1307 3.37798V6.51424C28.1307 7.32935 28.7904 7.99012 29.6043 7.99012V3.37798C29.6043 2.60486 30.2323 1.97588 31.0042 1.97588C31.7762 1.97588 32.4042 2.60486 32.4042 3.37798V6.51424C32.4042 7.32935 33.064 7.99012 33.8778 7.99012L33.8778 3.37798ZM23.1203 4.30041C23.1203 6.39932 21.4214 8.10081 19.3257 8.10081C17.23 8.10081 15.5311 6.39932 15.5311 4.30041C15.5311 2.2015 17.23 0.5 19.3257 0.5C21.4214 0.5 23.1203 2.2015 23.1203 4.30041ZM21.6467 4.30041C21.6467 3.01661 20.6075 1.97589 19.3257 1.97589C18.0438 1.97589 17.0047 3.01661 17.0047 4.30041C17.0047 5.5842 18.0438 6.62492 19.3257 6.62492C20.6075 6.62492 21.6467 5.5842 21.6467 4.30041ZM14.9416 4.30041C14.9416 6.39932 13.2427 8.10081 11.147 8.10081C9.0513 8.10081 7.3524 6.39932 7.3524 4.30041C7.3524 2.2015 9.05131 0.5 11.147 0.5C13.2427 0.5 14.9416 2.2015 14.9416 4.30041ZM13.468 4.30041C13.468 3.01661 12.4288 1.97589 11.147 1.97589C9.86517 1.97589 8.82604 3.01661 8.82604 4.30041C8.82604 5.5842 9.86517 6.62492 11.147 6.62492C12.4288 6.62492 13.468 5.5842 13.468 4.30041Z" fill="#686F79"/>
</g>
<defs>
<clipPath id="clip0_922_94847">
<rect width="82" height="28" fill="white" transform="translate(0.5 0.5)"/>
</clipPath>
</defs>
</svg>
